ply
format ascii 1.0
comment Created by Blender 2.69 (sub 0) - www.blender.org, source file: ''
element vertex 463
property float x
property float y
property float z
property float nx
property float ny
property float nz
element face 196
property list uchar uint vertex_indices
end_header
0.000000 -0.000000 -0.500000 0.062781 -0.000000 -0.998027
0.000000 1.000000 -0.500000 0.062781 -0.000000 -0.998027
0.062667 1.000000 -0.496058 0.062781 -0.000000 -0.998027
0.062667 -0.000000 -0.496057 0.187386 -0.000001 -0.982286
0.062667 1.000000 -0.496058 0.187386 -0.000001 -0.982286
0.124345 1.000000 -0.484292 0.187386 -0.000001 -0.982286
0.124345 -0.000000 -0.484291 0.309028 -0.000001 -0.951053
0.124345 1.000000 -0.484292 0.309028 -0.000001 -0.951053
0.184062 1.000000 -0.464888 0.309028 -0.000001 -0.951053
0.184062 -0.000000 -0.464888 0.425778 -0.000000 -0.904828
0.184062 1.000000 -0.464888 0.425778 -0.000000 -0.904828
0.240877 -0.000000 -0.438153 0.425778 -0.000000 -0.904828
0.240877 -0.000000 -0.438153 0.535827 -0.000001 -0.844328
0.240877 1.000000 -0.438154 0.535827 -0.000001 -0.844328
0.293893 -0.000000 -0.404508 0.535827 -0.000001 -0.844328
0.293893 -0.000000 -0.404508 0.637431 -0.000001 -0.770507
0.293893 1.000000 -0.404509 0.637431 -0.000001 -0.770507
0.342274 1.000000 -0.364484 0.637431 -0.000001 -0.770507
0.342274 0.000000 -0.364484 0.728967 -0.000000 -0.684549
0.342274 1.000000 -0.364484 0.728967 -0.000000 -0.684549
0.385257 0.000000 -0.318712 0.728967 -0.000000 -0.684549
0.385257 0.000000 -0.318712 0.809016 -0.000000 -0.587786
0.385257 1.000000 -0.318712 0.809016 -0.000000 -0.587786
0.422164 1.000000 -0.267914 0.809016 -0.000000 -0.587786
0.422164 0.000000 -0.267913 0.876305 -0.000001 -0.481758
0.422164 1.000000 -0.267914 0.876305 -0.000001 -0.481758
0.452414 1.000000 -0.212890 0.876305 -0.000001 -0.481758
0.452414 0.000000 -0.212889 0.929780 -0.000000 -0.368115
0.452414 1.000000 -0.212890 0.929780 -0.000000 -0.368115
0.475528 1.000000 -0.154509 0.929780 -0.000000 -0.368115
0.475528 0.000000 -0.154508 0.968581 -0.000000 -0.248699
0.475528 1.000000 -0.154509 0.968581 -0.000000 -0.248699
0.491144 1.000000 -0.093691 0.968581 -0.000000 -0.248699
0.491144 0.000000 -0.093690 0.992116 -0.000000 -0.125321
0.491144 1.000000 -0.093691 0.992116 -0.000000 -0.125321
0.499013 1.000000 -0.031395 0.992116 -0.000000 -0.125321
0.499013 0.000000 -0.031395 1.000000 0.000000 0.000000
0.499013 1.000000 -0.031395 1.000000 0.000000 0.000000
0.499013 0.000000 0.031396 1.000000 0.000000 0.000000
0.499013 0.000000 0.031396 0.992116 0.000000 0.125323
0.499013 1.000000 0.031395 0.992116 0.000000 0.125323
0.491144 0.000000 0.093691 0.992116 0.000000 0.125323
0.491144 0.000000 0.093691 0.968581 0.000000 0.248699
0.491144 1.000000 0.093691 0.968581 0.000000 0.248699
0.475528 0.000000 0.154509 0.968581 0.000000 0.248699
0.475528 0.000000 0.154509 0.929775 0.000000 0.368129
0.475528 1.000000 0.154509 0.929775 0.000000 0.368129
0.452413 0.000000 0.212890 0.929775 0.000000 0.368129
0.452413 0.000000 0.212890 0.876311 0.000000 0.481745
0.452413 1.000000 0.212890 0.876311 0.000000 0.481745
0.422164 0.000000 0.267914 0.876311 0.000000 0.481745
0.422164 0.000000 0.267914 0.809009 0.000001 0.587797
0.422164 1.000000 0.267913 0.809009 0.000001 0.587797
0.385256 0.000000 0.318712 0.809009 0.000001 0.587797
0.385256 0.000000 0.318712 0.728967 0.000000 0.684549
0.385256 1.000000 0.318712 0.728967 0.000000 0.684549
0.342273 1.000000 0.364484 0.728967 0.000000 0.684549
0.342273 0.000000 0.364485 0.637431 0.000001 0.770507
0.342273 1.000000 0.364484 0.637431 0.000001 0.770507
0.293892 1.000000 0.404509 0.637431 0.000001 0.770507
0.293892 0.000000 0.404509 0.535834 0.000000 0.844323
0.293892 1.000000 0.404509 0.535834 0.000000 0.844323
0.240877 0.000000 0.438154 0.535834 0.000000 0.844323
0.240877 0.000000 0.438154 0.425778 0.000001 0.904828
0.240877 1.000000 0.438153 0.425778 0.000001 0.904828
0.184062 0.000000 0.464889 0.425778 0.000001 0.904828
0.184062 0.000000 0.464889 0.309014 0.000001 0.951058
0.184062 1.000000 0.464888 0.309014 0.000001 0.951058
0.124345 0.000000 0.484292 0.309014 0.000001 0.951058
0.124345 0.000000 0.484292 0.187383 0.000000 0.982287
0.124345 1.000000 0.484292 0.187383 0.000000 0.982287
0.062666 0.000000 0.496058 0.187383 0.000000 0.982287
0.062666 0.000000 0.496058 0.062797 0.000001 0.998026
0.062666 1.000000 0.496057 0.062797 0.000001 0.998026
0.000000 1.000000 0.500000 0.062797 0.000001 0.998026
0.000000 0.000000 0.500000 -0.062796 0.000000 0.998026
0.000000 1.000000 0.500000 -0.062796 0.000000 0.998026
-0.062667 1.000000 0.496057 -0.062796 0.000000 0.998026
-0.062667 0.000000 0.496057 -0.187370 0.000000 0.982289
-0.062667 1.000000 0.496057 -0.187370 0.000000 0.982289
-0.124345 0.000000 0.484292 -0.187370 0.000000 0.982289
-0.124345 0.000000 0.484292 -0.309009 0.000001 0.951059
-0.124345 1.000000 0.484291 -0.309009 0.000001 0.951059
-0.184063 1.000000 0.464888 -0.309009 0.000001 0.951059
-0.184063 0.000000 0.464888 -0.425784 0.000000 0.904825
-0.184063 1.000000 0.464888 -0.425784 0.000000 0.904825
-0.240877 1.000000 0.438153 -0.425784 0.000000 0.904825
-0.240877 0.000000 0.438153 -0.535827 0.000000 0.844328
-0.240877 1.000000 0.438153 -0.535827 0.000000 0.844328
-0.293893 1.000000 0.404508 -0.535827 0.000000 0.844328
-0.293893 0.000000 0.404508 -0.637422 0.000000 0.770515
-0.293893 1.000000 0.404508 -0.637422 0.000000 0.770515
-0.342274 0.000000 0.364484 -0.637422 0.000000 0.770515
-0.342274 0.000000 0.364484 -0.728974 0.000000 0.684541
-0.342274 1.000000 0.364484 -0.728974 0.000000 0.684541
-0.385257 1.000000 0.318711 -0.728974 0.000000 0.684541
-0.385257 0.000000 0.318712 -0.809022 0.000001 0.587779
-0.385257 1.000000 0.318711 -0.809022 0.000001 0.587779
-0.422164 0.000000 0.267913 -0.809022 0.000001 0.587779
-0.422164 0.000000 0.267913 -0.876305 0.000000 0.481757
-0.422164 1.000000 0.267913 -0.876305 0.000000 0.481757
-0.452414 1.000000 0.212889 -0.876305 0.000000 0.481757
-0.452414 0.000000 0.212889 -0.929780 0.000000 0.368115
-0.452414 1.000000 0.212889 -0.929780 0.000000 0.368115
-0.475528 1.000000 0.154508 -0.929780 0.000000 0.368115
-0.475528 0.000000 0.154508 -0.968581 0.000000 0.248699
-0.475528 1.000000 0.154508 -0.968581 0.000000 0.248699
-0.491144 1.000000 0.093690 -0.968581 0.000000 0.248699
-0.491144 0.000000 0.093690 -0.992116 0.000000 0.125323
-0.491144 1.000000 0.093690 -0.992116 0.000000 0.125323
-0.499013 0.000000 0.031395 -0.992116 0.000000 0.125323
-0.499013 0.000000 0.031395 -1.000000 0.000000 0.000000
-0.499013 1.000000 0.031394 -1.000000 0.000000 0.000000
-0.499013 0.000000 -0.031396 -1.000000 0.000000 0.000000
-0.499013 0.000000 -0.031396 -0.992114 -0.000000 -0.125336
-0.499013 1.000000 -0.031396 -0.992114 -0.000000 -0.125336
-0.491143 1.000000 -0.093692 -0.992114 -0.000000 -0.125336
-0.491143 0.000000 -0.093691 -0.968584 -0.000000 -0.248687
-0.491143 1.000000 -0.093692 -0.968584 -0.000000 -0.248687
-0.475528 1.000000 -0.154509 -0.968584 -0.000000 -0.248687
-0.475528 0.000000 -0.154509 -0.929777 -0.000000 -0.368124
-0.475528 1.000000 -0.154509 -0.929777 -0.000000 -0.368124
-0.452413 1.000000 -0.212891 -0.929777 -0.000000 -0.368124
-0.452413 0.000000 -0.212890 -0.876308 -0.000001 -0.481752
-0.452413 1.000000 -0.212891 -0.876308 -0.000001 -0.481752
-0.422164 1.000000 -0.267914 -0.876308 -0.000001 -0.481752
-0.422164 0.000000 -0.267914 -0.809014 -0.000000 -0.587789
-0.422164 1.000000 -0.267914 -0.809014 -0.000000 -0.587789
-0.385256 1.000000 -0.318713 -0.809014 -0.000000 -0.587789
-0.385256 0.000000 -0.318713 -0.728967 -0.000000 -0.684549
-0.385256 1.000000 -0.318713 -0.728967 -0.000000 -0.684549
-0.342273 0.000000 -0.364485 -0.728967 -0.000000 -0.684549
-0.342273 0.000000 -0.364485 -0.637422 -0.000000 -0.770515
-0.342273 1.000000 -0.364485 -0.637422 -0.000000 -0.770515
-0.293892 1.000000 -0.404509 -0.637422 -0.000000 -0.770515
-0.293892 -0.000000 -0.404509 -0.535827 -0.000000 -0.844328
-0.293892 1.000000 -0.404509 -0.535827 -0.000000 -0.844328
-0.240876 1.000000 -0.438154 -0.535827 -0.000000 -0.844328
-0.240876 -0.000000 -0.438154 -0.425765 -0.000000 -0.904834
-0.240876 1.000000 -0.438154 -0.425765 -0.000000 -0.904834
-0.184061 -0.000000 -0.464888 -0.425765 -0.000000 -0.904834
-0.184061 -0.000000 -0.464888 -0.309028 -0.000001 -0.951053
-0.184061 1.000000 -0.464889 -0.309028 -0.000001 -0.951053
-0.124344 -0.000000 -0.484292 -0.309028 -0.000001 -0.951053
0.062667 1.000000 -0.496058 -0.000000 1.000000 0.000000
0.000000 1.000000 -0.500000 -0.000000 1.000000 0.000000
0.124345 1.000000 -0.484292 -0.000000 1.000000 0.000000
-0.062666 1.000000 -0.496058 -0.062797 -0.000001 -0.998026
0.000000 -0.000000 -0.500000 -0.062797 -0.000001 -0.998026
-0.062666 -0.000000 -0.496057 -0.062797 -0.000001 -0.998026
-0.124344 -0.000000 -0.484292 -0.187386 -0.000000 -0.982286
-0.124344 1.000000 -0.484292 -0.187386 -0.000000 -0.982286
-0.062666 1.000000 -0.496058 -0.187386 -0.000000 -0.982286
-0.062666 -0.000000 -0.496057 -0.000000 -1.000000 0.000000
0.000000 -0.000000 -0.500000 -0.000000 -1.000000 0.000000
0.184062 -0.000000 -0.464888 -0.000000 -1.000000 0.000000
0.062667 -0.000000 -0.496057 0.062796 -0.000001 -0.998026
0.000000 -0.000000 -0.500000 0.062796 -0.000001 -0.998026
0.062667 1.000000 -0.496058 0.062796 -0.000001 -0.998026
0.124345 -0.000000 -0.484291 0.187386 -0.000001 -0.982286
0.184062 -0.000000 -0.464888 0.309013 -0.000000 -0.951058
0.124345 -0.000000 -0.484291 0.309013 -0.000000 -0.951058
0.184062 1.000000 -0.464888 0.309013 -0.000000 -0.951058
-0.385257 1.000000 0.318711 0.000000 1.000000 0.000000
-0.342274 1.000000 0.364484 0.000000 1.000000 0.000000
-0.240877 1.000000 0.438153 0.000000 1.000000 0.000000
-0.385257 1.000000 0.318711 -0.809016 0.000000 0.587786
-0.422164 1.000000 0.267913 -0.809016 0.000000 0.587786
-0.422164 0.000000 0.267913 -0.809016 0.000000 0.587786
0.342274 0.000000 -0.364484 0.637422 -0.000000 -0.770515
0.293893 -0.000000 -0.404508 0.637422 -0.000000 -0.770515
0.342274 1.000000 -0.364484 0.637422 -0.000000 -0.770515
-0.499013 1.000000 -0.031396 0.000000 1.000000 0.000000
-0.499013 1.000000 0.031394 0.000000 1.000000 0.000000
-0.475528 1.000000 0.154508 0.000000 1.000000 0.000000
0.422164 0.000000 -0.267913 0.809022 -0.000001 -0.587779
0.385257 0.000000 -0.318712 0.809022 -0.000001 -0.587779
0.422164 1.000000 -0.267914 0.809022 -0.000001 -0.587779
0.452414 0.000000 -0.212889 0.876305 -0.000001 -0.481757
0.422164 0.000000 -0.267913 0.876305 -0.000001 -0.481757
0.452414 1.000000 -0.212890 0.876305 -0.000001 -0.481757
0.475528 0.000000 -0.154508 0.929780 -0.000000 -0.368115
0.491144 0.000000 -0.093690 0.968581 -0.000000 -0.248699
0.499013 0.000000 -0.031395 0.992116 -0.000000 -0.125323
0.491144 0.000000 -0.093690 0.992116 -0.000000 -0.125323
0.499013 1.000000 -0.031395 0.992116 -0.000000 -0.125323
0.062667 -0.000000 -0.496057 0.000000 -1.000000 0.000000
0.124345 -0.000000 -0.484291 0.000000 -1.000000 0.000000
-0.293892 1.000000 -0.404509 0.000000 1.000000 0.000000
-0.342273 1.000000 -0.364485 0.000000 1.000000 0.000000
-0.385256 1.000000 -0.318713 0.000000 1.000000 0.000000
-0.475528 0.000000 0.154508 0.000000 -1.000000 0.000000
-0.491144 0.000000 0.093690 0.000000 -1.000000 0.000000
-0.499013 0.000000 0.031395 0.000000 -1.000000 0.000000
0.293893 1.000000 -0.404509 0.535827 -0.000001 -0.844328
0.491144 0.000000 0.093691 -0.000004 -1.000000 -0.000001
0.475528 0.000000 0.154509 -0.000004 -1.000000 -0.000001
0.452413 0.000000 0.212890 -0.000004 -1.000000 -0.000001
0.475528 0.000000 -0.154508 0.000000 -1.000000 0.000000
0.491144 0.000000 -0.093690 0.000000 -1.000000 0.000000
0.499013 0.000000 -0.031395 0.000000 -1.000000 0.000000
0.342273 0.000000 0.364485 0.728974 0.000001 0.684541
0.385256 0.000000 0.318712 0.728974 0.000001 0.684541
0.342273 1.000000 0.364484 0.728974 0.000001 0.684541
0.293892 0.000000 0.404509 0.637422 0.000000 0.770515
0.342273 0.000000 0.364485 0.637422 0.000000 0.770515
0.293892 1.000000 0.404509 0.637422 0.000000 0.770515
0.385256 0.000000 0.318712 0.000000 -1.000000 0.000000
0.342273 0.000000 0.364485 0.000000 -1.000000 0.000000
0.293892 0.000000 0.404509 0.000000 -1.000000 0.000000
0.184062 1.000000 0.464888 0.309028 0.000000 0.951053
0.124345 1.000000 0.484292 0.309028 0.000000 0.951053
0.124345 0.000000 0.484292 0.309028 0.000000 0.951053
-0.385256 0.000000 -0.318713 -0.000006 -1.000000 -0.000005
-0.342273 0.000000 -0.364485 -0.000006 -1.000000 -0.000005
-0.293892 -0.000000 -0.404509 -0.000006 -1.000000 -0.000005
0.499013 1.000000 0.031395 0.992116 0.000000 0.125321
0.491144 1.000000 0.093691 0.992116 0.000000 0.125321
0.491144 0.000000 0.093691 0.992116 0.000000 0.125321
0.000000 0.000000 0.500000 0.062782 0.000000 0.998027
0.062666 0.000000 0.496058 0.062782 0.000000 0.998027
0.000000 1.000000 0.500000 0.062782 0.000000 0.998027
-0.062667 0.000000 0.496057 -0.062796 0.000000 0.998026
0.000000 0.000000 0.500000 -0.062796 0.000000 0.998026
-0.062667 1.000000 0.496057 -0.062796 0.000000 0.998026
0.184062 1.000000 0.464888 0.425778 0.000001 0.904828
-0.184063 0.000000 0.464888 -0.309023 0.000000 0.951054
-0.124345 0.000000 0.484292 -0.309023 0.000000 0.951054
-0.184063 1.000000 0.464888 -0.309023 0.000000 0.951054
-0.240877 0.000000 0.438153 -0.425784 0.000000 0.904825
-0.293893 0.000000 0.404508 -0.535827 0.000000 0.844328
-0.499013 0.000000 -0.031396 0.000000 -1.000000 0.000000
-0.491143 0.000000 -0.093691 0.000000 -1.000000 0.000000
-0.475528 0.000000 -0.154509 0.000000 -1.000000 0.000000
-0.385257 0.000000 0.318712 -0.728967 0.000001 0.684549
-0.342274 0.000000 0.364484 -0.728967 0.000001 0.684549
-0.385257 1.000000 0.318711 -0.728967 0.000001 0.684549
0.184062 -0.000000 -0.464888 0.000000 -1.000000 0.000000
0.240877 -0.000000 -0.438153 0.000000 -1.000000 0.000000
0.293893 -0.000000 -0.404508 0.000000 -1.000000 0.000000
-0.452414 0.000000 0.212889 -0.876305 0.000000 0.481758
-0.422164 0.000000 0.267913 -0.876305 0.000000 0.481758
-0.452414 1.000000 0.212889 -0.876305 0.000000 0.481758
-0.475528 0.000000 0.154508 -0.929780 0.000000 0.368115
-0.491144 0.000000 0.093690 -0.968581 0.000000 0.248699
0.184062 1.000000 -0.464888 0.425765 -0.000001 -0.904834
0.240877 1.000000 -0.438154 0.425765 -0.000001 -0.904834
0.240877 -0.000000 -0.438153 0.425765 -0.000001 -0.904834
-0.184063 1.000000 0.464888 0.000000 1.000000 -0.000000
-0.124345 1.000000 0.484291 0.000000 1.000000 -0.000000
-0.240877 1.000000 0.438153 0.000000 1.000000 -0.000000
-0.491143 0.000000 -0.093691 -0.992114 -0.000000 -0.125338
-0.499013 0.000000 -0.031396 -0.992114 -0.000000 -0.125338
-0.491143 1.000000 -0.093692 -0.992114 -0.000000 -0.125338
-0.475528 0.000000 -0.154509 -0.968585 -0.000000 -0.248684
-0.491143 0.000000 -0.093691 -0.968585 -0.000000 -0.248684
-0.475528 1.000000 -0.154509 -0.968585 -0.000000 -0.248684
-0.452413 0.000000 -0.212890 -0.929775 -0.000000 -0.368129
-0.475528 0.000000 -0.154509 -0.929775 -0.000000 -0.368129
-0.452413 1.000000 -0.212891 -0.929775 -0.000000 -0.368129
-0.422164 0.000000 -0.267914 -0.876311 -0.000000 -0.481745
-0.452413 0.000000 -0.212890 -0.876311 -0.000000 -0.481745
-0.422164 1.000000 -0.267914 -0.876311 -0.000000 -0.481745
-0.385256 0.000000 -0.318713 -0.809014 -0.000000 -0.587789
0.422164 1.000000 -0.267914 0.000000 1.000000 0.000000
0.385257 1.000000 -0.318712 0.000000 1.000000 0.000000
0.342274 1.000000 -0.364484 0.000000 1.000000 0.000000
-0.293892 -0.000000 -0.404509 -0.637422 -0.000000 -0.770515
-0.240876 -0.000000 -0.438154 -0.535827 -0.000000 -0.844328
0.491144 1.000000 0.093691 0.000000 1.000000 -0.000000
0.499013 1.000000 0.031395 0.000000 1.000000 -0.000000
0.499013 1.000000 -0.031395 0.000000 1.000000 -0.000000
0.422164 0.000000 0.267914 0.000000 -1.000000 0.000000
0.385256 0.000000 0.318712 0.000000 -1.000000 0.000000
0.293892 0.000000 0.404509 0.000000 -1.000000 0.000000
-0.124344 1.000000 -0.484292 -0.000000 1.000000 0.000000
-0.342274 0.000000 0.364484 -0.000000 -1.000000 0.000000
-0.422164 0.000000 0.267913 -0.000000 -1.000000 0.000000
-0.240877 0.000000 0.438153 -0.000000 -1.000000 0.000000
-0.293892 1.000000 -0.404509 -0.000000 1.000000 0.000000
0.499013 1.000000 0.031395 1.000000 0.000000 0.000000
-0.475528 1.000000 -0.154509 -0.000000 1.000000 -0.000000
0.422164 1.000000 0.267913 0.809014 0.000000 0.587789
0.385256 1.000000 0.318712 0.809014 0.000000 0.587789
0.385256 0.000000 0.318712 0.809014 0.000000 0.587789
-0.385256 1.000000 -0.318713 0.000000 1.000000 0.000000
-0.452413 1.000000 -0.212891 0.000000 1.000000 0.000000
0.342274 0.000000 -0.364484 0.000001 -1.000000 -0.000001
0.385257 0.000000 -0.318712 0.000001 -1.000000 -0.000001
0.184062 -0.000000 -0.464888 0.000001 -1.000000 -0.000001
0.475528 1.000000 0.154509 0.968581 0.000000 0.248699
0.385257 1.000000 -0.318712 0.728967 -0.000000 -0.684549
-0.062667 1.000000 0.496057 -0.000000 1.000000 -0.000000
0.293893 -0.000000 -0.404508 -0.000002 -1.000000 0.000004
0.342274 0.000000 -0.364484 -0.000002 -1.000000 0.000004
0.184062 -0.000000 -0.464888 -0.000002 -1.000000 0.000004
-0.499013 1.000000 -0.031396 0.000000 1.000000 -0.000000
0.452413 1.000000 0.212890 0.876308 0.000001 0.481752
0.422164 1.000000 0.267913 0.876308 0.000001 0.481752
0.422164 0.000000 0.267914 0.876308 0.000001 0.481752
-0.240876 1.000000 -0.438154 -0.425778 -0.000001 -0.904828
-0.184061 1.000000 -0.464889 -0.425778 -0.000001 -0.904828
-0.184061 -0.000000 -0.464888 -0.425778 -0.000001 -0.904828
0.499013 1.000000 -0.031395 0.000000 1.000000 0.000000
0.491144 1.000000 -0.093691 0.000000 1.000000 0.000000
0.475528 1.000000 -0.154509 0.000000 1.000000 0.000000
-0.475528 1.000000 0.154508 0.000000 1.000000 0.000000
-0.422164 1.000000 0.267913 0.000000 1.000000 0.000000
-0.240877 1.000000 0.438153 0.000000 1.000000 0.000000
-0.422164 1.000000 0.267913 0.000000 1.000000 0.000000
-0.385257 1.000000 0.318711 0.000000 1.000000 0.000000
-0.240877 1.000000 0.438153 0.000000 1.000000 0.000000
0.422164 0.000000 -0.267913 0.000000 -1.000000 0.000000
0.452414 0.000000 -0.212889 0.000000 -1.000000 0.000000
0.475528 0.000000 -0.154508 0.000000 -1.000000 0.000000
0.475528 1.000000 -0.154509 0.000000 1.000000 0.000000
0.452414 1.000000 -0.212890 0.000000 1.000000 0.000000
0.422164 1.000000 -0.267914 0.000000 1.000000 0.000000
-0.475528 1.000000 0.154508 0.000000 1.000000 -0.000000
-0.499013 0.000000 0.031395 0.000000 -1.000000 0.000000
-0.499013 0.000000 -0.031396 0.000000 -1.000000 0.000000
-0.452413 0.000000 -0.212890 0.000000 -1.000000 0.000000
0.000000 1.000000 0.500000 0.000000 1.000000 0.000000
0.062666 1.000000 0.496057 0.000000 1.000000 0.000000
0.124345 1.000000 0.484292 0.000000 1.000000 -0.000000
0.184062 1.000000 0.464888 0.000000 1.000000 -0.000000
0.184062 1.000000 0.464888 0.000000 1.000000 -0.000000
0.240877 1.000000 0.438153 0.000000 1.000000 -0.000000
0.124345 1.000000 -0.484292 0.000000 1.000000 -0.000000
0.240877 1.000000 0.438153 0.000000 1.000000 -0.000000
0.293892 1.000000 0.404509 0.000000 1.000000 -0.000000
0.422164 1.000000 0.267913 0.000000 1.000000 0.000000
-0.124345 0.000000 0.484292 0.000000 -1.000000 0.000000
-0.184063 0.000000 0.464888 0.000000 -1.000000 0.000000
0.452413 1.000000 0.212890 0.929775 0.000000 0.368129
0.452413 1.000000 0.212890 0.000000 1.000000 -0.000000
0.491144 1.000000 0.093691 0.000000 1.000000 0.000000
0.293892 1.000000 0.404509 0.535823 0.000001 0.844330
0.240877 1.000000 0.438153 0.535823 0.000001 0.844330
0.240877 0.000000 0.438154 0.535823 0.000001 0.844330
0.475528 1.000000 0.154509 0.000000 1.000000 0.000000
0.124345 1.000000 -0.484292 0.000000 1.000000 -0.000000
0.499013 1.000000 -0.031395 0.000000 1.000000 -0.000000
0.475528 1.000000 -0.154509 0.000000 1.000000 -0.000000
-0.499013 1.000000 -0.031396 -1.000000 0.000000 0.000000
0.422164 1.000000 -0.267914 0.000000 1.000000 -0.000000
-0.452414 0.000000 0.212889 0.000000 -1.000000 0.000000
-0.452413 0.000000 -0.212890 0.000000 -1.000000 0.000000
-0.385256 0.000000 -0.318713 0.000000 -1.000000 0.000000
0.342274 1.000000 -0.364484 0.000000 1.000000 -0.000000
0.000000 1.000000 -0.500000 -0.062782 -0.000000 -0.998027
0.000000 -0.000000 -0.500000 -0.062782 -0.000000 -0.998027
-0.062666 1.000000 -0.496058 -0.062782 -0.000000 -0.998027
0.293893 1.000000 -0.404509 0.000000 1.000000 0.000000
0.293893 1.000000 -0.404509 0.000000 1.000000 0.000000
0.240877 1.000000 -0.438154 0.000000 1.000000 0.000000
0.184062 1.000000 -0.464888 0.000000 1.000000 0.000000
0.293893 1.000000 -0.404509 0.000000 1.000000 -0.000000
0.184062 1.000000 -0.464888 0.000000 1.000000 -0.000000
0.124345 1.000000 0.484292 0.187368 0.000001 0.982290
0.062666 1.000000 0.496057 0.187368 0.000001 0.982290
0.062666 0.000000 0.496058 0.187368 0.000001 0.982290
-0.062666 -0.000000 -0.496057 -0.187370 -0.000001 -0.982289
-0.124344 -0.000000 -0.484292 -0.187370 -0.000001 -0.982289
-0.062666 1.000000 -0.496058 -0.187370 -0.000001 -0.982289
0.385256 1.000000 0.318712 -0.000000 1.000000 -0.000000
0.422164 1.000000 0.267913 -0.000000 1.000000 -0.000000
0.293892 1.000000 0.404509 -0.000000 1.000000 -0.000000
-0.342273 1.000000 -0.364485 -0.728967 -0.000000 -0.684549
-0.491143 1.000000 -0.093692 0.000000 1.000000 0.000000
-0.491144 1.000000 0.093690 -0.992116 0.000000 0.125321
-0.499013 1.000000 0.031394 -0.992116 0.000000 0.125321
-0.499013 0.000000 0.031395 -0.992116 0.000000 0.125321
-0.062666 1.000000 -0.496058 0.000000 1.000000 0.000000
0.385257 0.000000 -0.318712 0.000001 -1.000000 -0.000000
0.422164 0.000000 -0.267913 0.000001 -1.000000 -0.000000
0.184062 -0.000000 -0.464888 0.000001 -1.000000 -0.000000
-0.184061 1.000000 -0.464889 -0.309014 -0.000000 -0.951058
-0.124344 1.000000 -0.484292 -0.309014 -0.000000 -0.951058
-0.124344 -0.000000 -0.484292 -0.309014 -0.000000 -0.951058
-0.062666 -0.000000 -0.496057 0.000000 -1.000000 -0.000000
0.475528 0.000000 -0.154508 0.000000 -1.000000 -0.000000
0.499013 0.000000 -0.031395 0.000000 -1.000000 -0.000000
-0.293892 -0.000000 -0.404509 0.000000 -1.000000 0.000000
-0.240876 -0.000000 -0.438154 0.000000 -1.000000 0.000000
-0.184061 -0.000000 -0.464888 0.000000 -1.000000 0.000000
0.499013 0.000000 -0.031395 0.000000 -1.000000 0.000000
0.452413 0.000000 0.212890 0.000000 -1.000000 0.000000
-0.452413 1.000000 -0.212891 0.000000 1.000000 0.000000
-0.475528 1.000000 -0.154509 0.000000 1.000000 0.000000
-0.293892 1.000000 -0.404509 0.000000 1.000000 0.000000
-0.124345 1.000000 0.484291 0.000000 1.000000 -0.000000
-0.062667 1.000000 0.496057 0.000000 1.000000 -0.000000
-0.240877 1.000000 0.438153 0.000000 1.000000 -0.000000
0.499013 0.000000 0.031396 0.000000 -1.000000 0.000000
0.491144 0.000000 0.093691 0.000000 -1.000000 0.000000
0.499013 0.000000 -0.031395 0.000000 -1.000000 0.000000
0.062666 0.000000 0.496058 0.000000 -1.000000 0.000000
0.062666 0.000000 0.496058 -0.000000 -1.000000 -0.000000
0.452413 0.000000 0.212890 -0.000000 -1.000000 -0.000000
0.240877 0.000000 0.438154 -0.000000 -1.000000 -0.000000
-0.342274 0.000000 0.364484 0.000000 -1.000000 0.000000
-0.385257 0.000000 0.318712 0.000000 -1.000000 0.000000
-0.422164 0.000000 0.267913 0.000000 -1.000000 0.000000
-0.293893 1.000000 0.404508 0.000000 1.000000 0.000000
0.422164 0.000000 0.267914 0.000000 -1.000000 0.000000
-0.293893 0.000000 0.404508 -0.000000 -1.000000 0.000000
-0.342274 0.000000 0.364484 -0.000000 -1.000000 0.000000
-0.240877 0.000000 0.438153 -0.000000 -1.000000 0.000000
-0.475528 0.000000 -0.154509 -0.000000 -1.000000 -0.000000
-0.452413 0.000000 -0.212890 -0.000000 -1.000000 -0.000000
-0.499013 0.000000 -0.031396 -0.000000 -1.000000 -0.000000
0.124345 0.000000 0.484292 0.000000 -1.000000 0.000000
0.240877 0.000000 0.438154 0.000000 -1.000000 0.000000
0.000000 0.000000 0.500000 0.000000 -1.000000 0.000000
-0.184061 1.000000 -0.464889 0.000000 1.000000 0.000000
-0.240876 1.000000 -0.438154 0.000000 1.000000 0.000000
-0.342274 1.000000 0.364484 -0.637422 0.000000 0.770515
0.240877 0.000000 0.438154 0.000000 -1.000000 0.000000
-0.124345 0.000000 0.484292 0.000000 -1.000000 0.000000
-0.240877 0.000000 0.438153 0.000000 -1.000000 0.000000
-0.422164 0.000000 0.267913 0.000000 -1.000000 0.000000
0.491144 0.000000 0.093691 -0.000001 -1.000000 -0.000000
0.452413 0.000000 0.212890 -0.000001 -1.000000 -0.000000
0.499013 0.000000 -0.031395 -0.000001 -1.000000 -0.000000
0.184062 0.000000 0.464889 0.000000 -1.000000 0.000000
-0.452414 0.000000 0.212889 -0.000000 -1.000000 0.000000
-0.240876 1.000000 -0.438154 0.000000 1.000000 0.000000
-0.293892 1.000000 -0.404509 0.000000 1.000000 0.000000
-0.124344 1.000000 -0.484292 0.000000 1.000000 0.000000
-0.385256 1.000000 -0.318713 0.000000 1.000000 0.000000
-0.422164 1.000000 -0.267914 0.000000 1.000000 0.000000
-0.452413 1.000000 -0.212891 0.000000 1.000000 0.000000
-0.452414 0.000000 0.212889 0.000001 -1.000000 0.000000
-0.475528 0.000000 0.154508 0.000001 -1.000000 0.000000
-0.452413 0.000000 -0.212890 0.000001 -1.000000 0.000000
-0.062667 1.000000 0.496057 -0.187386 0.000001 0.982286
-0.124345 1.000000 0.484291 -0.187386 0.000001 0.982286
-0.124345 0.000000 0.484292 -0.187386 0.000001 0.982286
-0.499013 1.000000 0.031394 0.000000 1.000000 0.000000
-0.491144 1.000000 0.093690 0.000000 1.000000 0.000000
-0.475528 1.000000 0.154508 0.000000 1.000000 0.000000
-0.475528 0.000000 0.154508 0.000000 -1.000000 0.000000
-0.499013 0.000000 0.031395 0.000000 -1.000000 0.000000
-0.452413 0.000000 -0.212890 0.000000 -1.000000 0.000000
0.342273 1.000000 0.364484 -0.000000 1.000000 -0.000000
0.385256 1.000000 0.318712 -0.000000 1.000000 -0.000000
-0.422164 0.000000 -0.267914 -0.000000 -1.000000 -0.000000
-0.385256 0.000000 -0.318713 -0.000000 -1.000000 -0.000000
-0.452413 0.000000 -0.212890 -0.000000 -1.000000 -0.000000
-0.062666 -0.000000 -0.496057 0.000000 -1.000000 0.000001
-0.385256 0.000000 -0.318713 0.000000 -1.000000 0.000001
-0.293892 -0.000000 -0.404509 0.000000 -1.000000 0.000001
0.422164 0.000000 -0.267913 -0.000000 -1.000000 0.000000
0.184062 -0.000000 -0.464888 -0.000000 -1.000000 0.000000
-0.062667 0.000000 0.496057 0.000000 -1.000000 0.000000
-0.124344 -0.000000 -0.484292 -0.000000 -1.000000 -0.000000
-0.293892 -0.000000 -0.404509 -0.000000 -1.000000 -0.000000
-0.184061 -0.000000 -0.464888 -0.000000 -1.000000 -0.000000
-0.124344 -0.000000 -0.484292 -0.000000 -1.000000 -0.000000
-0.293892 -0.000000 -0.404509 -0.000000 -1.000000 -0.000000
-0.452414 1.000000 0.212889 0.000000 1.000000 0.000000
-0.422164 1.000000 0.267913 0.000000 1.000000 0.000000
3 0 1 2
3 3 4 5
3 6 7 8
3 9 10 11
3 12 13 14
3 15 16 17
3 18 19 20
3 21 22 23
3 24 25 26
3 27 28 29
3 30 31 32
3 33 34 35
3 36 37 38
3 39 40 41
3 42 43 44
3 45 46 47
3 48 49 50
3 51 52 53
3 54 55 56
3 57 58 59
3 60 61 62
3 63 64 65
3 66 67 68
3 69 70 71
3 72 73 74
3 75 76 77
3 78 79 80
3 81 82 83
3 84 85 86
3 87 88 89
3 90 91 92
3 93 94 95
3 96 97 98
3 99 100 101
3 102 103 104
3 105 106 107
3 108 109 110
3 111 112 113
3 114 115 116
3 117 118 119
3 120 121 122
3 123 124 125
3 126 127 128
3 129 130 131
3 132 133 134
3 135 136 137
3 138 139 140
3 141 142 143
3 144 145 146
3 147 148 149
3 150 151 152
3 153 154 155
3 156 157 158
3 159 3 5
3 160 161 162
3 163 164 165
3 166 167 168
3 169 170 171
3 172 173 174
3 175 176 177
3 178 179 180
3 181 27 29
3 182 30 32
3 183 184 185
3 186 187 155
3 188 189 190
3 191 192 193
3 13 194 14
3 195 196 197
3 198 199 200
3 201 202 203
3 204 205 206
3 207 208 209
3 210 211 212
3 213 214 215
3 216 217 218
3 219 220 221
3 222 223 224
3 64 225 65
3 226 227 228
3 229 84 86
3 230 87 89
3 231 232 233
3 234 235 236
3 237 238 239
3 240 241 242
3 243 102 104
3 244 105 107
3 245 246 247
3 248 249 250
3 251 252 253
3 254 255 256
3 257 258 259
3 260 261 262
3 263 126 128
3 264 265 266
3 267 132 134
3 268 135 137
3 269 270 271
3 272 273 274
3 146 145 275
3 276 277 278
3 146 275 279
3 37 280 38
3 165 146 281
3 282 283 284
3 279 285 286
3 287 288 289
3 146 279 281
3 43 290 44
3 19 291 20
3 292 146 165
3 293 294 295
3 296 165 281
3 297 298 299
3 300 301 302
3 303 304 305
3 306 307 308
3 309 310 311
3 312 313 314
3 315 316 317
3 318 165 296
3 319 320 321
3 292 322 146
3 322 323 146
3 323 324 146
3 324 325 146
3 326 327 328
3 329 330 146
3 146 330 331
3 332 333 278
3 46 334 47
3 331 335 146
3 146 335 336
3 337 338 339
3 146 336 303
3 335 340 336
3 341 342 343
3 112 344 113
3 146 305 345
3 346 347 348
3 146 345 349
3 350 351 352
3 349 353 146
3 354 355 356
3 341 357 358
3 359 360 361
3 362 363 364
3 365 366 367
3 154 186 155
3 130 368 131
3 281 369 296
3 370 371 372
3 145 373 275
3 374 375 376
3 153 312 314
3 377 378 379
3 380 381 382
3 383 384 385
3 153 386 387
3 388 389 390
3 391 392 393
3 394 395 396
3 153 387 397
3 398 399 400
3 401 402 403
3 164 404 165
3 399 405 400
3 406 407 408
3 409 410 411
3 412 397 413
3 397 414 153
3 153 414 332
3 415 416 275
3 91 417 92
3 274 418 272
3 153 332 348
3 419 420 421
3 422 423 424
3 413 425 412
3 421 426 419
3 427 428 429
3 332 346 348
3 430 431 432
3 433 434 435
3 436 437 438
3 439 440 441
3 442 443 444
3 445 446 330
3 447 448 449
3 450 451 452
3 453 380 454
3 414 455 332
3 456 380 457
3 458 459 460
3 318 461 462
