ply
format ascii 1.0
comment Created by Blender 2.69 (sub 0) - www.blender.org, source file: ''
element vertex 211
property float x
property float y
property float z
property float nx
property float ny
property float nz
element face 98
property list uchar uint vertex_indices
end_header
-0.124344 -0.500000 -0.484292 -0.167663 0.446507 -0.878931
0.000000 0.500000 -0.000000 -0.167663 0.446507 -0.878931
-0.062666 -0.500000 -0.496057 -0.167663 0.446507 -0.878931
0.000000 -0.500000 -0.500000 0.056184 0.446507 -0.893014
0.000000 0.500000 -0.000000 0.056184 0.446507 -0.893014
0.062667 -0.500000 -0.496057 0.056184 0.446507 -0.893014
-0.184061 -0.500000 -0.464889 -0.276500 0.446507 -0.850987
0.000000 0.500000 -0.000000 -0.276500 0.446507 -0.850987
-0.124344 -0.500000 -0.484292 -0.276500 0.446507 -0.850987
-0.240876 -0.500000 -0.438154 -0.380977 0.446507 -0.809622
0.000000 0.500000 -0.000000 -0.380977 0.446507 -0.809622
-0.184061 -0.500000 -0.464889 -0.380977 0.446507 -0.809622
-0.293892 -0.500000 -0.404509 -0.479446 0.446507 -0.755488
0.000000 0.500000 -0.000000 -0.479446 0.446507 -0.755488
-0.240876 -0.500000 -0.438154 -0.479446 0.446507 -0.755488
-0.342273 -0.500000 -0.364485 -0.570353 0.446507 -0.689441
0.000000 0.500000 -0.000000 -0.570353 0.446507 -0.689441
-0.293892 -0.500000 -0.404509 -0.570353 0.446507 -0.689441
-0.385256 -0.500000 -0.318713 -0.652266 0.446507 -0.612520
0.000000 0.500000 -0.000000 -0.652266 0.446507 -0.612520
-0.342273 -0.500000 -0.364485 -0.652266 0.446507 -0.612520
-0.422164 -0.500000 -0.267914 -0.723891 0.446507 -0.525940
0.000000 0.500000 -0.000000 -0.723891 0.446507 -0.525940
-0.385256 -0.500000 -0.318713 -0.723891 0.446507 -0.525940
-0.452413 -0.500000 -0.212890 -0.784101 0.446507 -0.431065
0.000000 0.500000 -0.000000 -0.784101 0.446507 -0.431065
-0.422164 -0.500000 -0.267914 -0.784101 0.446507 -0.431065
-0.475528 -0.500000 -0.154509 -0.831945 0.446507 -0.329392
0.000000 0.500000 -0.000000 -0.831945 0.446507 -0.329392
-0.452413 -0.500000 -0.212890 -0.831945 0.446507 -0.329392
-0.491143 -0.500000 -0.093691 -0.866668 0.446507 -0.222524
0.000000 0.500000 -0.000000 -0.866668 0.446507 -0.222524
-0.475528 -0.500000 -0.154509 -0.866668 0.446507 -0.222524
-0.499013 -0.500000 -0.031396 -0.887724 0.446507 -0.112147
0.000000 0.500000 -0.000000 -0.887724 0.446507 -0.112147
-0.491143 -0.500000 -0.093691 -0.887724 0.446507 -0.112147
-0.499013 -0.500000 0.031395 -0.894780 0.446507 -0.000001
0.000000 0.500000 -0.000000 -0.894780 0.446507 -0.000001
-0.499013 -0.500000 -0.031396 -0.894780 0.446507 -0.000001
-0.491144 -0.500000 0.093690 -0.887725 0.446507 0.112144
0.000000 0.500000 -0.000000 -0.887725 0.446507 0.112144
-0.499013 -0.500000 0.031395 -0.887725 0.446507 0.112144
-0.475528 -0.500000 0.154508 -0.866669 0.446507 0.222522
0.000000 0.500000 -0.000000 -0.866669 0.446507 0.222522
-0.491144 -0.500000 0.093690 -0.866669 0.446507 0.222522
-0.452414 -0.500000 0.212889 -0.831946 0.446507 0.329389
0.000000 0.500000 -0.000000 -0.831946 0.446507 0.329389
-0.475528 -0.500000 0.154508 -0.831946 0.446507 0.329389
-0.422164 -0.500000 0.267913 -0.784102 0.446507 0.431062
0.000000 0.500000 -0.000000 -0.784102 0.446507 0.431062
-0.452414 -0.500000 0.212889 -0.784102 0.446507 0.431062
-0.385257 -0.500000 0.318712 -0.723893 0.446507 0.525938
0.000000 0.500000 -0.000000 -0.723893 0.446507 0.525938
-0.422164 -0.500000 0.267913 -0.723893 0.446507 0.525938
-0.342274 -0.500000 0.364484 -0.652267 0.446507 0.612518
0.000000 0.500000 -0.000000 -0.652267 0.446507 0.612518
-0.385257 -0.500000 0.318712 -0.652267 0.446507 0.612518
-0.293893 -0.500000 0.404508 -0.570355 0.446507 0.689439
0.000000 0.500000 -0.000000 -0.570355 0.446507 0.689439
-0.342274 -0.500000 0.364484 -0.570355 0.446507 0.689439
-0.240877 -0.500000 0.438153 -0.479448 0.446507 0.755487
0.000000 0.500000 -0.000000 -0.479448 0.446507 0.755487
-0.293893 -0.500000 0.404508 -0.479448 0.446507 0.755487
-0.184063 -0.500000 0.464888 -0.380980 0.446507 0.809621
0.000000 0.500000 -0.000000 -0.380980 0.446507 0.809621
-0.240877 -0.500000 0.438153 -0.380980 0.446507 0.809621
-0.124345 -0.500000 0.484291 -0.276503 0.446507 0.850986
0.000000 0.500000 -0.000000 -0.276503 0.446507 0.850986
-0.184063 -0.500000 0.464888 -0.276503 0.446507 0.850986
-0.062667 -0.500000 0.496057 -0.167666 0.446507 0.878931
0.000000 0.500000 -0.000000 -0.167666 0.446507 0.878931
-0.124345 -0.500000 0.484291 -0.167666 0.446507 0.878931
-0.000000 -0.500000 0.500000 -0.056184 0.446507 0.893014
0.000000 0.500000 -0.000000 -0.056184 0.446507 0.893014
-0.062667 -0.500000 0.496057 -0.056184 0.446507 0.893014
0.062666 -0.500000 0.496057 0.056182 0.446507 0.893014
0.000000 0.500000 -0.000000 0.056182 0.446507 0.893014
-0.000000 -0.500000 0.500000 0.056182 0.446507 0.893014
0.124345 -0.500000 0.484292 0.167664 0.446507 0.878931
0.000000 0.500000 -0.000000 0.167664 0.446507 0.878931
0.062666 -0.500000 0.496057 0.167664 0.446507 0.878931
0.184062 -0.500000 0.464888 0.276502 0.446507 0.850987
0.000000 0.500000 -0.000000 0.276502 0.446507 0.850987
0.124345 -0.500000 0.484292 0.276502 0.446507 0.850987
0.240877 -0.500000 0.438154 0.380978 0.446507 0.809621
0.000000 0.500000 -0.000000 0.380978 0.446507 0.809621
0.184062 -0.500000 0.464888 0.380978 0.446507 0.809621
0.293892 -0.500000 0.404509 0.479447 0.446507 0.755488
0.000000 0.500000 -0.000000 0.479447 0.446507 0.755488
0.240877 -0.500000 0.438154 0.479447 0.446507 0.755488
0.342273 -0.500000 0.364485 0.570354 0.446507 0.689440
0.000000 0.500000 -0.000000 0.570354 0.446507 0.689440
0.293892 -0.500000 0.404509 0.570354 0.446507 0.689440
0.385256 -0.500000 0.318712 0.652266 0.446507 0.612519
0.000000 0.500000 -0.000000 0.652266 0.446507 0.612519
0.342273 -0.500000 0.364485 0.652266 0.446507 0.612519
0.422164 -0.500000 0.267914 0.723892 0.446507 0.525939
0.000000 0.500000 -0.000000 0.723892 0.446507 0.525939
0.385256 -0.500000 0.318712 0.723892 0.446507 0.525939
0.452413 -0.500000 0.212890 0.784102 0.446507 0.431064
0.000000 0.500000 -0.000000 0.784102 0.446507 0.431064
0.422164 -0.500000 0.267914 0.784102 0.446507 0.431064
0.475528 -0.500000 0.154509 0.831945 0.446507 0.329391
0.000000 0.500000 -0.000000 0.831945 0.446507 0.329391
0.452413 -0.500000 0.212890 0.831945 0.446507 0.329391
0.491144 -0.500000 0.093691 0.866669 0.446507 0.222523
0.000000 0.500000 -0.000000 0.866669 0.446507 0.222523
0.475528 -0.500000 0.154509 0.866669 0.446507 0.222523
0.499013 -0.500000 0.031395 0.887724 0.446507 0.112146
0.000000 0.500000 -0.000000 0.887724 0.446507 0.112146
0.491144 -0.500000 0.093691 0.887724 0.446507 0.112146
0.499013 -0.500000 -0.031395 0.894780 0.446507 0.000000
0.000000 0.500000 -0.000000 0.894780 0.446507 0.000000
0.499013 -0.500000 0.031395 0.894780 0.446507 0.000000
0.491144 -0.500000 -0.093691 0.887725 0.446507 -0.112145
0.000000 0.500000 -0.000000 0.887725 0.446507 -0.112145
0.499013 -0.500000 -0.031395 0.887725 0.446507 -0.112145
0.475528 -0.500000 -0.154508 0.866669 0.446507 -0.222523
0.000000 0.500000 -0.000000 0.866669 0.446507 -0.222523
0.491144 -0.500000 -0.093691 0.866669 0.446507 -0.222523
0.452414 -0.500000 -0.212890 0.831946 0.446507 -0.329390
0.000000 0.500000 -0.000000 0.831946 0.446507 -0.329390
0.475528 -0.500000 -0.154508 0.831946 0.446507 -0.329390
0.422164 -0.500000 -0.267913 0.784102 0.446507 -0.431064
0.000000 0.500000 -0.000000 0.784102 0.446507 -0.431064
0.452414 -0.500000 -0.212890 0.784102 0.446507 -0.431064
0.385257 -0.500000 -0.318712 0.723892 0.446507 -0.525938
0.000000 0.500000 -0.000000 0.723892 0.446507 -0.525938
0.422164 -0.500000 -0.267913 0.723892 0.446507 -0.525938
0.342274 -0.500000 -0.364484 0.652267 0.446507 -0.612519
0.000000 0.500000 -0.000000 0.652267 0.446507 -0.612519
0.385257 -0.500000 -0.318712 0.652267 0.446507 -0.612519
0.293893 -0.500000 -0.404508 0.570354 0.446507 -0.689440
0.000000 0.500000 -0.000000 0.570354 0.446507 -0.689440
0.342274 -0.500000 -0.364484 0.570354 0.446507 -0.689440
0.240877 -0.500000 -0.438153 0.479447 0.446507 -0.755488
0.000000 0.500000 -0.000000 0.479447 0.446507 -0.755488
0.293893 -0.500000 -0.404508 0.479447 0.446507 -0.755488
0.184062 -0.500000 -0.464888 0.380978 0.446507 -0.809622
0.000000 0.500000 -0.000000 0.380978 0.446507 -0.809622
0.240877 -0.500000 -0.438153 0.380978 0.446507 -0.809622
0.124345 -0.500000 -0.484292 0.276503 0.446507 -0.850986
0.000000 0.500000 -0.000000 0.276503 0.446507 -0.850986
0.184062 -0.500000 -0.464888 0.276503 0.446507 -0.850986
0.000000 0.500000 -0.000000 -0.056183 0.446507 -0.893014
0.000000 -0.500000 -0.500000 -0.056183 0.446507 -0.893014
-0.062666 -0.500000 -0.496057 -0.056183 0.446507 -0.893014
0.062667 -0.500000 -0.496057 0.167665 0.446507 -0.878931
0.000000 0.500000 -0.000000 0.167665 0.446507 -0.878931
0.124345 -0.500000 -0.484292 0.167665 0.446507 -0.878931
-0.062666 -0.500000 -0.496057 -0.000000 -1.000000 0.000000
0.000000 -0.500000 -0.500000 -0.000000 -1.000000 0.000000
0.184062 -0.500000 -0.464888 -0.000000 -1.000000 0.000000
-0.124344 -0.500000 -0.484292 -0.000000 -1.000000 -0.000000
-0.385256 -0.500000 -0.318713 -0.000000 -1.000000 -0.000000
0.062667 -0.500000 -0.496057 0.000000 -1.000000 0.000000
-0.452414 -0.500000 0.212889 0.000000 -1.000000 0.000000
-0.475528 -0.500000 0.154508 0.000000 -1.000000 0.000000
-0.422164 -0.500000 -0.267914 0.000000 -1.000000 0.000000
0.293893 -0.500000 -0.404508 0.000000 -1.000000 -0.000000
0.342274 -0.500000 -0.364484 0.000000 -1.000000 -0.000000
-0.491144 -0.500000 0.093690 -0.000000 -1.000000 0.000000
-0.499013 -0.500000 0.031395 -0.000000 -1.000000 0.000000
0.385257 -0.500000 -0.318712 0.000000 -1.000000 -0.000000
0.422164 -0.500000 -0.267913 0.000000 -1.000000 -0.000000
0.475528 -0.500000 -0.154508 0.000000 -1.000000 0.000000
-0.342274 -0.500000 0.364484 0.000003 -1.000000 -0.000002
-0.385257 -0.500000 0.318712 0.000003 -1.000000 -0.000002
-0.422164 -0.500000 0.267913 0.000003 -1.000000 -0.000002
0.499013 -0.500000 -0.031395 0.000000 -1.000000 0.000000
-0.293892 -0.500000 -0.404509 0.000000 -1.000000 0.000000
-0.240876 -0.500000 -0.438154 0.000000 -1.000000 0.000000
-0.184061 -0.500000 -0.464889 0.000000 -1.000000 0.000000
0.452413 -0.500000 0.212890 0.000000 -1.000000 -0.000000
-0.499013 -0.500000 -0.031396 0.000000 -1.000000 0.000000
-0.491143 -0.500000 -0.093691 0.000000 -1.000000 0.000000
-0.475528 -0.500000 -0.154509 0.000000 -1.000000 0.000000
0.499013 -0.500000 0.031395 0.000000 -1.000000 0.000000
0.491144 -0.500000 0.093691 0.000000 -1.000000 0.000000
0.062666 -0.500000 0.496057 -0.000000 -1.000000 0.000000
0.240877 -0.500000 0.438154 0.000000 -1.000000 0.000000
0.184062 -0.500000 0.464888 0.000000 -1.000000 0.000000
0.124345 -0.500000 0.484292 0.000000 -1.000000 0.000000
0.422164 -0.500000 0.267914 -0.000001 -1.000000 -0.000001
0.385256 -0.500000 0.318712 -0.000001 -1.000000 -0.000001
0.293892 -0.500000 0.404509 -0.000001 -1.000000 -0.000001
0.422164 -0.500000 0.267914 -0.000000 -1.000000 -0.000000
-0.293893 -0.500000 0.404508 -0.000000 -1.000000 0.000000
-0.342274 -0.500000 0.364484 -0.000000 -1.000000 0.000000
-0.240877 -0.500000 0.438153 -0.000000 -1.000000 0.000000
0.452414 -0.500000 -0.212890 0.000000 -1.000000 0.000000
-0.000000 -0.500000 0.500000 0.000000 -1.000000 0.000000
-0.124345 -0.500000 0.484291 -0.000000 -1.000000 0.000000
0.124345 -0.500000 -0.484292 0.000000 -1.000000 0.000000
-0.422164 -0.500000 0.267913 0.000000 -1.000000 0.000000
0.475528 -0.500000 0.154509 0.000000 -1.000000 0.000000
-0.452413 -0.500000 -0.212890 0.000000 -1.000000 0.000000
-0.062667 -0.500000 0.496057 0.000000 -1.000000 0.000000
0.293892 -0.500000 0.404509 0.000000 -1.000000 0.000001
0.240877 -0.500000 0.438154 0.000000 -1.000000 0.000001
0.422164 -0.500000 0.267914 0.000000 -1.000000 0.000001
0.491144 -0.500000 -0.093691 0.000000 -1.000000 0.000000
-0.342274 -0.500000 0.364484 -0.000001 -1.000000 0.000001
-0.422164 -0.500000 0.267913 -0.000001 -1.000000 0.000001
-0.240877 -0.500000 0.438153 -0.000001 -1.000000 0.000001
-0.184063 -0.500000 0.464888 0.000000 -1.000000 0.000000
0.240877 -0.500000 -0.438153 0.000000 -1.000000 0.000000
-0.342273 -0.500000 -0.364485 0.000000 -1.000000 0.000000
0.385256 -0.500000 0.318712 0.000002 -1.000000 0.000003
0.342273 -0.500000 0.364485 0.000002 -1.000000 0.000003
0.293892 -0.500000 0.404509 0.000002 -1.000000 0.000003
3 0 1 2
3 3 4 5
3 6 7 8
3 9 10 11
3 12 13 14
3 15 16 17
3 18 19 20
3 21 22 23
3 24 25 26
3 27 28 29
3 30 31 32
3 33 34 35
3 36 37 38
3 39 40 41
3 42 43 44
3 45 46 47
3 48 49 50
3 51 52 53
3 54 55 56
3 57 58 59
3 60 61 62
3 63 64 65
3 66 67 68
3 69 70 71
3 72 73 74
3 75 76 77
3 78 79 80
3 81 82 83
3 84 85 86
3 87 88 89
3 90 91 92
3 93 94 95
3 96 97 98
3 99 100 101
3 102 103 104
3 105 106 107
3 108 109 110
3 111 112 113
3 114 115 116
3 117 118 119
3 120 121 122
3 123 124 125
3 126 127 128
3 129 130 131
3 132 133 134
3 135 136 137
3 138 139 140
3 141 142 143
3 144 145 146
3 147 148 149
3 150 151 152
3 153 150 154
3 151 155 152
3 156 157 158
3 159 160 152
3 161 162 157
3 163 164 152
3 150 164 165
3 166 167 168
3 150 165 169
3 170 171 172
3 150 169 173
3 174 175 176
3 176 158 157
3 177 178 169
3 150 173 179
3 179 173 180
3 180 181 182
3 183 184 185
3 173 186 180
3 187 188 189
3 164 190 165
3 182 179 180
3 179 191 150
3 150 191 192
3 155 193 152
3 150 192 189
3 162 174 157
3 150 189 194
3 178 195 173
3 160 163 152
3 176 196 158
3 194 156 150
3 150 156 158
3 191 197 192
3 198 199 200
3 165 201 169
3 202 203 204
3 192 205 189
3 174 176 157
3 152 206 159
3 158 154 150
3 178 173 169
3 164 150 152
3 154 207 170
3 170 153 154
3 172 153 170
3 208 209 210
