ply
format ascii 1.0
comment Created by Blender 2.69 (sub 0) - www.blender.org, source file: ''
element vertex 108
property float x
property float y
property float z
property float nx
property float ny
property float nz
element face 44
property list uchar uint vertex_indices
end_header
-0.913514 1.000000 -0.913508 -0.995771 -0.091867 0.000000
-0.729000 -1.000000 0.729000 -0.995771 -0.091867 0.000000
-0.913514 1.000000 0.913508 -0.995771 -0.091867 0.000000
0.729000 -1.000000 -0.729000 0.000000 -0.018817 -0.999823
-0.729000 -1.000000 -0.729000 0.000000 -0.018817 -0.999823
0.622106 -0.850000 -0.731823 0.000000 -0.018817 -0.999823
0.729000 -1.000000 0.729000 0.995771 -0.091867 0.000000
0.729000 -1.000000 -0.729000 0.995771 -0.091867 0.000000
0.913514 1.000000 0.913508 0.995771 -0.091867 0.000000
0.622106 -0.850000 0.731823 0.000000 -0.018817 0.999823
-0.622106 -0.850000 0.731823 0.000000 -0.018817 0.999823
0.729000 -1.000000 0.729000 0.000000 -0.018817 0.999823
0.729000 -1.000000 -0.729000 0.000000 -1.000000 0.000000
0.729000 -1.000000 0.729000 0.000000 -1.000000 0.000000
-0.729000 -1.000000 -0.729000 0.000000 -1.000000 0.000000
0.913514 1.000000 0.913508 0.000000 1.000000 -0.000000
0.913514 1.000000 -0.913508 0.000000 1.000000 -0.000000
-0.913514 1.000000 0.913508 0.000000 1.000000 -0.000000
0.623696 -0.850000 0.587222 0.000000 1.000000 -0.000000
-0.623696 -0.850000 0.587222 0.000000 1.000000 -0.000000
0.622106 -0.850000 0.731823 0.000000 1.000000 -0.000000
-0.760358 0.850000 0.894383 0.000000 -0.126476 0.991970
0.760358 0.850000 0.894383 0.000000 -0.126476 0.991970
0.913514 1.000000 0.913508 0.000000 -0.126476 0.991970
0.622106 -0.850000 0.731823 -0.033757 -0.092414 0.995148
0.913514 1.000000 0.913508 -0.033757 -0.092414 0.995148
0.760358 0.850000 0.894383 -0.033757 -0.092414 0.995148
0.729000 -1.000000 0.729000 -0.090543 -0.083201 0.992411
0.913514 1.000000 0.913508 -0.090543 -0.083201 0.992411
0.622106 -0.850000 0.731823 -0.090543 -0.083201 0.992411
-0.729000 -1.000000 -0.729000 0.090543 -0.083201 -0.992411
-0.913514 1.000000 -0.913508 0.090543 -0.083201 -0.992411
-0.622106 -0.850000 -0.731823 0.090543 -0.083201 -0.992411
-0.623696 -0.850000 -0.587222 -0.000000 -0.075478 -0.997147
-0.760293 0.850000 -0.715902 -0.000000 -0.075478 -0.997147
0.760293 0.850000 -0.715902 -0.000000 -0.075478 -0.997147
0.760358 0.850000 -0.894383 -0.996564 0.082093 0.010958
0.622106 -0.850000 -0.731823 -0.996564 0.082093 0.010958
0.623696 -0.850000 -0.587222 -0.996564 0.082093 0.010958
0.623696 -0.850000 -0.587222 -0.996790 0.080066 -0.000363
0.760293 0.850000 -0.715902 -0.996790 0.080066 -0.000363
0.760358 0.850000 -0.894383 -0.996790 0.080066 -0.000363
0.623696 -0.850000 0.587222 0.000000 -0.075478 0.997147
0.760293 0.850000 0.715902 0.000000 -0.075478 0.997147
-0.623696 -0.850000 0.587222 0.000000 -0.075478 0.997147
-0.760293 0.850000 0.715902 -0.000000 -1.000000 0.000000
0.760293 0.850000 0.715902 -0.000000 -1.000000 0.000000
0.760358 0.850000 0.894383 -0.000000 -1.000000 0.000000
0.622106 -0.850000 0.731823 -0.996564 0.082093 -0.010958
0.760358 0.850000 0.894383 -0.996564 0.082093 -0.010958
0.623696 -0.850000 0.587222 -0.996564 0.082093 -0.010958
-0.760358 0.850000 0.894383 0.996712 0.081023 0.000363
-0.622106 -0.850000 0.731823 0.996712 0.081023 0.000363
-0.760293 0.850000 0.715902 0.996712 0.081023 0.000363
0.913514 1.000000 -0.913508 0.995771 -0.091867 0.000000
-0.913514 1.000000 -0.913508 0.000000 1.000000 -0.000000
-0.729000 -1.000000 -0.729000 -0.995771 -0.091867 0.000000
-0.729000 -1.000000 0.729000 0.000000 -1.000000 0.000000
-0.760293 0.850000 0.715902 0.000000 -0.075478 0.997147
0.623696 -0.850000 -0.587222 0.000000 -0.075478 -0.997147
-0.622106 -0.850000 -0.731823 0.033757 -0.092414 -0.995148
-0.913514 1.000000 -0.913508 0.033757 -0.092414 -0.995148
-0.760358 0.850000 -0.894383 0.033757 -0.092414 -0.995148
0.760358 0.850000 -0.894383 0.000000 -0.126476 -0.991970
-0.760358 0.850000 -0.894383 0.000000 -0.126476 -0.991970
-0.913514 1.000000 -0.913508 0.000000 -0.126476 -0.991970
-0.913514 1.000000 -0.913508 -0.000000 -0.126476 -0.991970
0.913514 1.000000 -0.913508 -0.000000 -0.126476 -0.991970
0.760358 0.850000 -0.894383 -0.000000 -0.126476 -0.991970
0.760358 0.850000 -0.894383 -0.033757 -0.092414 -0.995148
0.913514 1.000000 -0.913508 -0.033757 -0.092414 -0.995148
0.622106 -0.850000 -0.731823 -0.033757 -0.092414 -0.995148
0.913514 1.000000 -0.913508 -0.090543 -0.083201 -0.992411
0.729000 -1.000000 -0.729000 -0.090543 -0.083201 -0.992411
0.622106 -0.850000 -0.731823 -0.090543 -0.083201 -0.992411
-0.622106 -0.850000 -0.731823 0.000000 -0.018817 -0.999823
-0.623696 -0.850000 -0.587222 0.996790 0.080066 -0.000363
-0.760358 0.850000 -0.894383 0.996790 0.080066 -0.000363
-0.760293 0.850000 -0.715902 0.996790 0.080066 -0.000363
-0.760358 0.850000 -0.894383 0.996564 0.082093 0.010958
-0.623696 -0.850000 -0.587222 0.996564 0.082093 0.010958
-0.622106 -0.850000 -0.731823 0.996564 0.082093 0.010958
-0.623696 -0.850000 -0.587222 0.000000 1.000000 -0.000000
0.623696 -0.850000 -0.587222 0.000000 1.000000 -0.000000
-0.622106 -0.850000 -0.731823 0.000000 1.000000 -0.000000
0.622106 -0.850000 -0.731823 0.000000 1.000000 -0.000000
0.760293 0.850000 -0.715902 0.000000 -1.000000 0.000000
-0.760293 0.850000 -0.715902 0.000000 -1.000000 0.000000
-0.760358 0.850000 -0.894383 0.000000 -1.000000 0.000000
0.760358 0.850000 -0.894383 -0.000000 -1.000000 -0.000000
0.913514 1.000000 0.913508 0.000000 -0.126476 0.991970
-0.913514 1.000000 0.913508 0.000000 -0.126476 0.991970
-0.760358 0.850000 0.894383 0.000000 -0.126476 0.991970
-0.913514 1.000000 0.913508 0.037773 -0.088342 0.995374
-0.729000 -1.000000 0.729000 0.037773 -0.088342 0.995374
-0.760358 0.850000 0.894383 0.037773 -0.088342 0.995374
-0.760358 0.850000 0.894383 0.095921 -0.087017 0.991578
-0.729000 -1.000000 0.729000 0.095921 -0.087017 0.991578
-0.622106 -0.850000 0.731823 0.095921 -0.087017 0.991578
0.623696 -0.850000 0.587222 -0.996790 0.080066 0.000363
0.760358 0.850000 0.894383 -0.996790 0.080066 0.000363
0.760293 0.850000 0.715902 -0.996790 0.080066 0.000363
-0.760358 0.850000 0.894383 0.000000 -1.000000 0.000000
-0.760293 0.850000 0.715902 0.996661 0.080912 -0.010959
-0.622106 -0.850000 0.731823 0.996661 0.080912 -0.010959
-0.623696 -0.850000 0.587222 0.996661 0.080912 -0.010959
-0.622106 -0.850000 0.731823 0.000000 1.000000 -0.000000
-0.729000 -1.000000 0.729000 0.000000 -0.018817 0.999823
3 0 1 2
3 3 4 5
3 6 7 8
3 9 10 11
3 12 13 14
3 15 16 17
3 18 19 20
3 21 22 23
3 24 25 26
3 27 28 29
3 30 31 32
3 33 34 35
3 36 37 38
3 39 40 41
3 42 43 44
3 45 46 47
3 48 49 50
3 51 52 53
3 7 54 8
3 17 16 55
3 1 0 56
3 57 14 13
3 44 43 58
3 35 59 33
3 60 61 62
3 63 64 65
3 66 67 68
3 69 70 71
3 72 73 74
3 5 4 75
3 76 77 78
3 79 80 81
3 82 83 84
3 84 83 85
3 86 87 88
3 88 89 86
3 90 91 92
3 93 94 95
3 96 97 98
3 99 100 101
3 47 102 45
3 103 104 105
3 106 20 19
3 107 11 10
