ply
format ascii 1.0
comment Created by Blender 2.69 (sub 0) - www.blender.org, source file: ''
element vertex 48
property float x
property float y
property float z
property float nx
property float ny
property float nz
element face 22
property list uchar uint vertex_indices
end_header
-0.000618 -0.997459 -0.999704 0.000000 -1.000000 0.000000
0.999382 -0.997458 -0.999704 0.000000 -1.000000 0.000000
-0.000618 -0.997458 0.000296 0.000000 -1.000000 0.000000
-1.000618 1.002542 1.000296 -0.000000 1.000000 -0.000000
-0.000618 1.002542 -0.999704 -0.000000 1.000000 -0.000000
-1.000618 1.002542 -0.999704 -0.000000 1.000000 -0.000000
0.999382 1.002542 -0.999704 0.707107 -0.000000 0.707107
-0.000618 1.002542 0.000296 0.707107 -0.000000 0.707107
0.999382 -0.997458 -0.999704 0.707107 -0.000000 0.707107
-0.000618 -0.997458 0.000296 0.707107 -0.000000 0.707107
0.999382 -0.997458 1.000296 0.000000 -1.000000 -0.000000
-0.000618 -0.997459 1.000296 0.000000 -1.000000 -0.000000
0.999382 -0.997458 1.000296 0.707107 -0.000000 -0.707107
-0.000618 -0.997458 0.000296 0.707107 -0.000000 -0.707107
-0.000618 1.002542 0.000296 0.707107 -0.000000 -0.707107
0.999382 1.002542 1.000296 0.707107 0.000000 -0.707107
-1.000618 -0.997459 -0.999704 1.000000 -0.000000 0.000000
-1.000618 1.002542 1.000296 1.000000 -0.000000 0.000000
-1.000618 -0.997458 1.000295 1.000000 -0.000000 0.000000
-1.000618 1.002542 -0.999704 -1.000000 0.000000 -0.000000
-1.000618 -0.997459 -0.999704 -1.000000 0.000000 -0.000000
-1.000618 1.002542 1.000296 -1.000000 0.000000 -0.000000
-0.000618 -0.997459 -0.999704 0.000000 1.000000 -0.000000
-1.000618 -0.997459 -0.999704 0.000000 1.000000 -0.000000
-0.000618 -0.997458 1.000296 0.000000 1.000000 -0.000000
-0.000618 1.002542 -0.999704 0.000000 -1.000000 -0.000000
-0.000618 1.002542 1.000296 0.000000 -1.000000 -0.000000
-1.000618 1.002542 1.000296 0.000000 -1.000000 -0.000000
-0.000618 -0.997459 1.000296 0.000000 0.000000 -1.000000
-1.000618 -0.997458 1.000295 0.000000 0.000000 -1.000000
-0.000618 1.002542 1.000296 0.000000 0.000000 -1.000000
-1.000618 1.002542 1.000296 0.000000 0.000000 -1.000000
-1.000618 -0.997459 -0.999704 -0.000000 0.000000 -1.000000
-1.000618 1.002542 -0.999704 -0.000000 0.000000 -1.000000
-0.000618 -0.997459 -0.999704 -0.000000 0.000000 -1.000000
-0.000618 1.002542 -0.999704 -0.000000 -0.000000 -1.000000
-1.000618 -0.997458 1.000295 0.000000 1.000000 -0.000000
0.999382 1.002542 -0.999704 -0.000000 1.000000 0.000000
-0.000618 1.002542 0.000296 -0.000000 1.000000 0.000000
-0.000618 1.002542 1.000296 -0.000000 1.000000 -0.000000
0.999382 1.002542 1.000296 -0.000000 1.000000 -0.000000
0.999382 1.002542 -0.999704 0.000000 0.000000 -1.000000
0.999382 -0.997458 -0.999704 0.000000 0.000000 -1.000000
0.999382 1.002542 1.000296 -0.000000 0.000000 1.000000
-0.000618 -0.997459 1.000296 -0.000000 0.000000 1.000000
0.999382 -0.997458 1.000296 -0.000000 0.000000 1.000000
-0.000618 -0.997459 -0.999704 0.000000 -0.000000 -1.000000
0.999382 1.002542 1.000296 -0.000000 0.000000 -1.000000
3 0 1 2
3 3 4 5
3 6 7 8
3 9 8 7
3 10 11 2
3 12 13 14
3 12 14 15
3 16 17 18
3 19 20 21
3 22 23 24
3 25 26 27
3 28 29 30
3 29 31 30
3 32 33 34
3 35 34 33
3 24 23 36
3 37 4 38
3 38 39 40
3 41 42 35
3 43 44 45
3 46 35 42
3 30 47 28
