ply
format ascii 1.0
comment Created by Blender 2.69 (sub 0) - www.blender.org, source file: ''
element vertex 72
property float x
property float y
property float z
property float nx
property float ny
property float nz
element face 44
property list uchar uint vertex_indices
end_header
-1.000000 1.000000 -1.000000 -1.000000 -0.000000 -0.000000
-1.000000 -1.000000 1.000000 -1.000000 -0.000000 -0.000000
-1.000000 1.000000 1.000000 -1.000000 -0.000000 -0.000000
1.000000 -1.000000 -1.000000 0.000000 -0.000000 -1.000000
-1.000000 -1.000000 -1.000000 0.000000 -0.000000 -1.000000
0.850000 -0.850000 -1.000000 0.000000 -0.000000 -1.000000
1.000000 -1.000000 1.000000 1.000000 0.000000 -0.000000
1.000000 -1.000000 -1.000000 1.000000 0.000000 -0.000000
1.000000 1.000000 1.000000 1.000000 0.000000 -0.000000
0.850000 -0.850000 1.000000 0.000000 -0.000000 1.000000
-0.850000 -0.850000 1.000000 0.000000 -0.000000 1.000000
1.000000 -1.000000 1.000000 0.000000 -0.000000 1.000000
1.000000 -1.000000 -1.000000 0.000000 -1.000000 0.000000
1.000000 -1.000000 1.000000 0.000000 -1.000000 0.000000
-1.000000 -1.000000 -1.000000 0.000000 -1.000000 0.000000
1.000000 1.000000 1.000000 0.000000 1.000000 -0.000000
1.000000 1.000000 -1.000000 0.000000 1.000000 -0.000000
-1.000000 1.000000 1.000000 0.000000 1.000000 -0.000000
0.850000 -0.850000 0.800000 -0.000000 1.000000 0.000000
-0.850000 -0.850000 0.800000 -0.000000 1.000000 0.000000
0.850000 -0.850000 1.000000 -0.000000 1.000000 0.000000
-0.850000 0.850000 1.000000 0.000000 0.000000 1.000000
0.850000 0.850000 1.000000 0.000000 0.000000 1.000000
1.000000 1.000000 1.000000 0.000000 0.000000 1.000000
-1.000000 1.000000 -1.000000 0.000000 -0.000000 -1.000000
-0.850000 -0.850000 -1.000000 0.000000 -0.000000 -1.000000
-0.850000 -0.850000 -0.800000 -0.000000 -0.000000 -1.000000
-0.850000 0.850000 -0.800000 -0.000000 -0.000000 -1.000000
0.850000 0.850000 -0.800000 -0.000000 -0.000000 -1.000000
0.850000 0.850000 -1.000000 -1.000000 0.000000 0.000000
0.850000 -0.850000 -1.000000 -1.000000 0.000000 0.000000
0.850000 -0.850000 -0.800000 -1.000000 0.000000 0.000000
0.850000 0.850000 -0.800000 -1.000000 0.000000 0.000000
0.850000 -0.850000 0.800000 0.000000 0.000000 1.000000
0.850000 0.850000 0.800000 0.000000 0.000000 1.000000
-0.850000 -0.850000 0.800000 0.000000 0.000000 1.000000
-0.850000 0.850000 0.800000 -0.000000 -1.000000 -0.000000
0.850000 0.850000 0.800000 -0.000000 -1.000000 -0.000000
0.850000 0.850000 1.000000 -0.000000 -1.000000 -0.000000
0.850000 -0.850000 1.000000 -1.000000 0.000000 0.000000
0.850000 0.850000 1.000000 -1.000000 0.000000 0.000000
0.850000 -0.850000 0.800000 -1.000000 0.000000 0.000000
-0.850000 0.850000 1.000000 1.000000 -0.000000 -0.000000
-0.850000 -0.850000 1.000000 1.000000 -0.000000 -0.000000
-0.850000 0.850000 0.800000 1.000000 -0.000000 -0.000000
1.000000 1.000000 -1.000000 1.000000 0.000000 0.000000
-1.000000 1.000000 -1.000000 0.000000 1.000000 -0.000000
-1.000000 -1.000000 -1.000000 -1.000000 0.000000 0.000000
-1.000000 -1.000000 1.000000 0.000000 -1.000000 0.000000
-0.850000 0.850000 0.800000 -0.000000 0.000000 1.000000
0.850000 -0.850000 -0.800000 0.000000 -0.000000 -1.000000
-0.850000 0.850000 -1.000000 -0.000000 -0.000000 -1.000000
0.850000 0.850000 -1.000000 0.000000 0.000000 -1.000000
1.000000 1.000000 -1.000000 0.000000 0.000000 -1.000000
-0.850000 -0.850000 -0.800000 1.000000 0.000000 0.000000
-0.850000 0.850000 -1.000000 1.000000 0.000000 0.000000
-0.850000 0.850000 -0.800000 1.000000 0.000000 0.000000
-0.850000 -0.850000 -1.000000 1.000000 -0.000000 0.000000
-0.850000 -0.850000 -0.800000 0.000000 1.000000 -0.000000
0.850000 -0.850000 -0.800000 0.000000 1.000000 -0.000000
-0.850000 -0.850000 -1.000000 0.000000 1.000000 -0.000000
0.850000 -0.850000 -1.000000 0.000000 1.000000 -0.000000
0.850000 0.850000 -0.800000 0.000000 -1.000000 0.000000
-0.850000 0.850000 -0.800000 0.000000 -1.000000 0.000000
-0.850000 0.850000 -1.000000 0.000000 -1.000000 0.000000
0.850000 0.850000 -1.000000 -0.000000 -1.000000 -0.000000
-1.000000 1.000000 1.000000 0.000000 -0.000000 1.000000
-1.000000 -1.000000 1.000000 0.000000 0.000000 1.000000
0.850000 0.850000 0.800000 -1.000000 -0.000000 0.000000
-0.850000 0.850000 1.000000 0.000000 -1.000000 0.000000
-0.850000 -0.850000 0.800000 1.000000 -0.000000 0.000000
-0.850000 -0.850000 1.000000 0.000000 1.000000 -0.000000
3 0 1 2
3 3 4 5
3 6 7 8
3 9 10 11
3 12 13 14
3 15 16 17
3 18 19 20
3 21 22 23
3 9 23 22
3 11 23 9
3 4 24 25
3 26 27 28
3 29 30 31
3 31 32 29
3 33 34 35
3 36 37 38
3 39 40 41
3 42 43 44
3 7 45 8
3 17 16 46
3 1 0 47
3 48 14 13
3 35 34 49
3 28 50 26
3 25 24 51
3 52 51 24
3 24 53 52
3 52 53 5
3 53 3 5
3 5 4 25
3 54 55 56
3 55 54 57
3 58 59 60
3 60 59 61
3 62 63 64
3 64 65 62
3 23 66 21
3 66 67 21
3 21 67 10
3 41 40 68
3 38 69 36
3 44 43 70
3 71 20 19
3 67 11 10
