ply
format ascii 1.0
comment Created by Blender 2.69 (sub 0) - www.blender.org, source file: ''
element vertex 132
property float x
property float y
property float z
property float nx
property float ny
property float nz
element face 44
property list uchar uint vertex_indices
end_header
-1.891770 -0.000018 -0.991365 0.000501 -0.999999 -0.000956
2.005434 0.001936 -0.991409 0.000501 -0.999999 -0.000956
2.006181 0.000025 1.008590 0.000501 -0.999999 -0.000956
-1.950976 1.020230 1.012752 -0.149474 0.988762 -0.002628
1.881795 1.599634 1.010165 -0.149474 0.988762 -0.002628
-1.951853 1.014782 -0.987367 -0.149474 0.988762 -0.002628
2.006181 0.000025 1.008590 0.996990 0.077526 -0.000298
2.005434 0.001936 -0.991409 0.996990 0.077526 -0.000298
1.881795 1.599634 1.010165 0.996990 0.077526 -0.000298
1.567017 0.145240 0.900265 0.006029 0.822011 0.569440
-1.468898 0.167217 0.900681 0.006029 0.822011 0.569440
-1.662064 0.093547 1.009072 0.006029 0.822011 0.569440
-1.951853 1.014782 -0.987367 -0.998251 -0.059106 0.000599
-1.891770 -0.000018 -0.991365 -0.998251 -0.059106 0.000599
-1.950976 1.020230 1.012752 -0.998251 -0.059106 0.000599
1.563389 0.143375 -0.868656 0.005075 0.887169 -0.461416
1.770513 0.078430 -0.991248 0.005075 0.887169 -0.461416
-1.473079 0.160925 -0.868313 0.005075 0.887169 -0.461416
1.766431 0.078092 1.008754 0.003896 0.853489 0.521096
1.567017 0.145240 0.900265 0.003896 0.853489 0.521096
-1.662064 0.093547 1.009072 0.003896 0.853489 0.521096
-1.890892 0.005431 1.008753 0.001058 -0.003878 0.999992
-1.715242 0.968751 1.012303 0.001058 -0.003878 0.999992
-1.950976 1.020230 1.012752 0.001058 -0.003878 0.999992
1.766431 0.078092 1.008754 0.000373 -0.000956 0.999999
2.006181 0.000025 1.008590 0.000373 -0.000956 0.999999
1.656995 1.485445 1.010140 0.000373 -0.000956 0.999999
-1.662064 0.093547 1.009072 0.000084 -0.001842 0.999998
2.006181 0.000025 1.008590 0.000084 -0.001842 0.999998
1.766431 0.078092 1.008754 0.000084 -0.001842 0.999998
-1.468898 0.167217 0.900681 0.000112 -0.003393 0.999994
1.567017 0.145240 0.900265 0.000112 -0.003393 0.999994
-1.516307 0.924592 0.903256 0.000112 -0.003393 0.999994
-1.890892 0.005431 1.008753 0.000027 -0.003690 0.999993
-1.662064 0.093547 1.009072 0.000027 -0.003690 0.999993
-1.715242 0.968751 1.012303 0.000027 -0.003690 0.999993
2.006181 0.000025 1.008590 0.000374 -0.000955 0.999999
1.881795 1.599634 1.010165 0.000374 -0.000955 0.999999
1.656995 1.485445 1.010140 0.000374 -0.000955 0.999999
-1.890892 0.005431 1.008753 0.000037 -0.003715 0.999993
2.006181 0.000025 1.008590 0.000037 -0.003715 0.999993
-1.662064 0.093547 1.009072 0.000037 -0.003715 0.999993
-1.667531 0.087373 -0.991036 0.002195 0.856205 -0.516631
-1.473079 0.160925 -0.868313 0.002195 0.856205 -0.516631
1.770513 0.078430 -0.991248 0.002195 0.856205 -0.516631
-1.951853 1.014782 -0.987367 -0.000994 0.003881 -0.999992
-1.720848 0.965440 -0.987788 -0.000994 0.003881 -0.999992
-1.891770 -0.000018 -0.991365 -0.000994 0.003881 -0.999992
1.563389 0.143375 -0.868656 -0.518081 -0.039445 -0.854421
1.466465 1.389835 -0.867430 -0.518081 -0.039445 -0.854421
1.770513 0.078430 -0.991248 -0.518081 -0.039445 -0.854421
1.770513 0.078430 -0.991248 -0.000052 0.003897 -0.999992
-1.891770 -0.000018 -0.991365 -0.000052 0.003897 -0.999992
-1.667531 0.087373 -0.991036 -0.000052 0.003897 -0.999992
-1.473079 0.160925 -0.868313 -0.000107 0.000975 -1.000000
1.466465 1.389835 -0.867430 -0.000107 0.000975 -1.000000
1.563389 0.143375 -0.868656 -0.000107 0.000975 -1.000000
1.770513 0.078430 -0.991248 -0.518076 -0.039444 -0.854424
1.466465 1.389835 -0.867430 -0.518076 -0.039444 -0.854424
1.660778 1.489655 -0.989859 -0.518076 -0.039444 -0.854424
1.660778 1.489655 -0.989859 -0.000374 0.000955 -0.999999
2.005434 0.001936 -0.991409 -0.000374 0.000955 -0.999999
1.770513 0.078430 -0.991248 -0.000374 0.000955 -0.999999
1.770513 0.078430 -0.991248 -0.000012 0.002067 -0.999998
2.005434 0.001936 -0.991409 -0.000012 0.002067 -0.999998
-1.891770 -0.000018 -0.991365 -0.000012 0.002067 -0.999998
1.881795 1.599634 1.010165 -0.151322 0.988484 0.001001
1.881051 1.601546 -0.989834 -0.151322 0.988484 0.001001
-1.951853 1.014782 -0.987367 -0.151322 0.988484 0.001001
-1.891770 -0.000018 -0.991365 -0.998252 -0.059107 0.000599
-1.890892 0.005431 1.008753 -0.998252 -0.059107 0.000599
-1.950976 1.020230 1.012752 -0.998252 -0.059107 0.000599
-1.520498 0.918301 -0.865739 -0.001092 0.003330 -0.999994
1.466465 1.389835 -0.867430 -0.001092 0.003330 -0.999994
-1.473079 0.160925 -0.868313 -0.001092 0.003330 -0.999994
1.881795 1.599634 1.010165 0.996990 0.077525 -0.000297
2.005434 0.001936 -0.991409 0.996990 0.077525 -0.000297
1.881051 1.601546 -0.989834 0.996990 0.077525 -0.000297
1.470107 1.391505 0.901493 0.000735 -0.000928 0.999999
-1.516307 0.924592 0.903256 0.000735 -0.000928 0.999999
1.567017 0.145240 0.900265 0.000735 -0.000928 0.999999
-1.715242 0.968751 1.012303 0.481618 0.026030 0.875994
-1.662064 0.093547 1.009072 0.481618 0.026030 0.875994
-1.468898 0.167217 0.900681 0.481618 0.026030 0.875994
-1.468898 0.167217 0.900681 0.485165 0.027398 0.873993
-1.516307 0.924592 0.903256 0.485165 0.027398 0.873993
-1.715242 0.968751 1.012303 0.485165 0.027398 0.873993
1.470107 1.391505 0.901493 -0.487573 -0.038773 0.872221
1.567017 0.145240 0.900265 -0.487573 -0.038773 0.872221
1.656995 1.485445 1.010140 -0.487573 -0.038773 0.872221
1.766431 0.078092 1.008754 -0.487577 -0.038773 0.872219
1.656995 1.485445 1.010140 -0.487577 -0.038773 0.872219
1.567017 0.145240 0.900265 -0.487577 -0.038773 0.872219
-1.950976 1.020230 1.012752 0.001178 -0.003328 0.999994
-1.715242 0.968751 1.012303 0.001178 -0.003328 0.999994
1.881795 1.599634 1.010165 0.001178 -0.003328 0.999994
1.881795 1.599634 1.010165 0.000967 -0.002122 0.999997
-1.715242 0.968751 1.012303 0.000967 -0.002122 0.999997
1.656995 1.485445 1.010140 0.000967 -0.002122 0.999997
1.656995 1.485445 1.010140 0.130564 -0.849998 0.510350
-1.715242 0.968751 1.012303 0.130564 -0.849998 0.510350
1.470107 1.391505 0.901493 0.130564 -0.849998 0.510350
1.881051 1.601546 -0.989834 -0.000372 0.000956 -1.000000
2.005434 0.001936 -0.991409 -0.000372 0.000956 -1.000000
1.660778 1.489655 -0.989859 -0.000372 0.000956 -1.000000
-1.891770 -0.000018 -0.991365 0.000025 0.003700 -0.999993
-1.720848 0.965440 -0.987788 0.000025 0.003700 -0.999993
-1.667531 0.087373 -0.991036 0.000025 0.003700 -0.999993
-1.720848 0.965440 -0.987788 0.525935 0.035079 -0.849801
-1.520498 0.918301 -0.865739 0.525935 0.035079 -0.849801
-1.667531 0.087373 -0.991036 0.525935 0.035079 -0.849801
-1.520498 0.918301 -0.865739 0.523690 0.035681 -0.851161
-1.473079 0.160925 -0.868313 0.523690 0.035681 -0.851161
-1.667531 0.087373 -0.991036 0.523690 0.035681 -0.851161
-1.951853 1.014782 -0.987367 -0.000970 0.002133 -0.999997
1.881051 1.601546 -0.989834 -0.000970 0.002133 -0.999997
1.660778 1.489655 -0.989859 -0.000970 0.002133 -0.999997
-1.951853 1.014782 -0.987367 -0.001121 0.003283 -0.999994
1.660778 1.489655 -0.989859 -0.001121 0.003283 -0.999994
-1.720848 0.965440 -0.987788 -0.001121 0.003283 -0.999994
-1.720848 0.965440 -0.987788 0.129144 -0.835196 -0.534574
1.660778 1.489655 -0.989859 0.129144 -0.835196 -0.534574
-1.520498 0.918301 -0.865739 0.129144 -0.835196 -0.534574
1.466465 1.389835 -0.867430 0.135876 -0.862464 -0.487537
-1.520498 0.918301 -0.865739 0.135876 -0.862464 -0.487537
1.660778 1.489655 -0.989859 0.135876 -0.862464 -0.487537
-1.890892 0.005431 1.008753 -0.001387 -0.999995 0.002725
-1.891770 -0.000018 -0.991365 -0.001387 -0.999995 0.002725
2.006181 0.000025 1.008590 -0.001387 -0.999995 0.002725
-1.516307 0.924592 0.903256 0.127906 -0.815969 0.563769
1.470107 1.391505 0.901493 0.127906 -0.815969 0.563769
-1.715242 0.968751 1.012303 0.127906 -0.815969 0.563769
3 0 1 2
3 3 4 5
3 6 7 8
3 9 10 11
3 12 13 14
3 15 16 17
3 18 19 20
3 21 22 23
3 24 25 26
3 27 28 29
3 30 31 32
3 33 34 35
3 36 37 38
3 39 40 41
3 42 43 44
3 45 46 47
3 48 49 50
3 51 52 53
3 54 55 56
3 57 58 59
3 60 61 62
3 63 64 65
3 66 67 68
3 69 70 71
3 72 73 74
3 75 76 77
3 78 79 80
3 81 82 83
3 84 85 86
3 87 88 89
3 90 91 92
3 93 94 95
3 96 97 98
3 99 100 101
3 102 103 104
3 105 106 107
3 108 109 110
3 111 112 113
3 114 115 116
3 117 118 119
3 120 121 122
3 123 124 125
3 126 127 128
3 129 130 131
